<?xml version="1.0" encoding="utf-8"?>
<!-- Generator: Adobe Illustrator 23.0.4, SVG Export Plug-In . SVG Version: 6.00 Build 0)  -->
<svg version="1.1" id="Layer_1" xmlns="http://www.w3.org/2000/svg" xmlns:xlink="http://www.w3.org/1999/xlink" x="0px" y="0px"
	 viewBox="0 0 129 129" style="enable-background:new 0 0 129 129;" xml:space="preserve">
<g>
	<path d="M102.6,32.3c1.4-0.2,2.5-1.2,2.8-2.6c0.3-1.3-0.1-2.8-1.1-3.6c-9-7.6-20.4-11.8-32.2-11.8C44.5,14.3,22,36.8,22,64.5
		s22.5,50.2,50.2,50.2c12.4,0,24.4-4.6,33.7-13c1-0.9,1.4-2.4,1-3.7c-0.3-1.3-1.5-2.2-2.9-2.4c-16-1.9-28.1-15.5-28.1-31.7
		C75.7,48,87,34.7,102.6,32.3L102.6,32.3z M68.6,63.8c0,17,11,31.8,26.7,37c-6.9,4.4-14.9,6.8-23.2,6.8c-23.8,0-43-19.4-43-43
		s19.4-43,43-43c7.7,0,15.1,2.1,21.7,5.9C78.9,32.9,68.6,47.2,68.6,63.8z"/>
</g>
</svg>
