<?xml version="1.0" encoding="utf-8"?>
<!-- Generator: Adobe Illustrator 23.0.4, SVG Export Plug-In . SVG Version: 6.00 Build 0)  -->
<svg version="1.1" id="Layer_1" xmlns="http://www.w3.org/2000/svg" xmlns:xlink="http://www.w3.org/1999/xlink" x="0px" y="0px"
	 viewBox="0 0 129 129" style="enable-background:new 0 0 129 129;" xml:space="preserve">
<g>
	<path d="M111.9,24.4c1.7-0.2,3.1-1.5,3.5-3.2c0.4-1.6-0.1-3.5-1.4-4.5C102.8,7.2,88.6,2,74,2C39.6,2,11.6,30,11.6,64.5
		s28,62.5,62.5,62.5c15.4,0,30.4-5.7,42-16.2c1.2-1.1,1.7-3,1.2-4.6c-0.4-1.6-1.9-2.7-3.6-3c-19.9-2.4-35-19.3-35-39.5
		C78.4,44,92.5,27.4,111.9,24.4L111.9,24.4z M69.6,63.6c0,21.2,13.7,39.6,33.2,46.1c-8.6,5.5-18.6,8.5-28.9,8.5
		c-29.6,0-53.5-24.2-53.5-53.5S44.6,11.1,74,11.1c9.6,0,18.8,2.6,27,7.3C82.4,25.2,69.6,43,69.6,63.6z"/>
</g>
</svg>
