<?xml version="1.0" encoding="utf-8"?>
<!-- Generator: Adobe Illustrator 23.0.4, SVG Export Plug-In . SVG Version: 6.00 Build 0)  -->
<svg version="1.1" id="Layer_1" xmlns="http://www.w3.org/2000/svg" xmlns:xlink="http://www.w3.org/1999/xlink" x="0px" y="0px"
	 viewBox="0 0 129 129" style="enable-background:new 0 0 129 129;" xml:space="preserve">
<g>
	<path d="M98.1,36.1c1.2-0.2,2.2-1.1,2.5-2.3c0.3-1.1-0.1-2.4-1-3.2c-7.9-6.7-18-10.4-28.4-10.4C46.9,20.2,27,40,27,64.5
		s19.8,44.3,44.3,44.3c10.9,0,21.5-4.1,29.7-11.5c0.9-0.8,1.2-2.1,0.9-3.3c-0.3-1.1-1.4-2-2.6-2.1C85.2,90.2,74.4,78.2,74.4,64
		C74.4,49.9,84.4,38.2,98.1,36.1L98.1,36.1z M68.1,63.9c0,15,9.7,28,23.5,32.7c-6.1,3.9-13.1,6-20.4,6c-21,0-38-17.1-38-38
		s17.1-38,38-38c6.8,0,13.4,1.8,19.1,5.2C77.2,36.6,68.1,49.2,68.1,63.9z"/>
</g>
</svg>
