<?xml version="1.0" encoding="utf-8"?>
<!-- Generator: Adobe Illustrator 23.0.4, SVG Export Plug-In . SVG Version: 6.00 Build 0)  -->
<svg version="1.1" id="Layer_1" xmlns="http://www.w3.org/2000/svg" xmlns:xlink="http://www.w3.org/1999/xlink" x="0px" y="0px"
	 viewBox="0 0 129 129" style="enable-background:new 0 0 129 129;" xml:space="preserve">
<g>
	<g>
		<path d="M64.5,95.5c17.1,0,30.9-13.9,30.9-30.9S81.5,33.7,64.5,33.7S33.6,47.6,33.6,64.6S47.4,95.5,64.5,95.5z M64.5,42.6
			c12.1,0,22,9.8,22,22s-9.8,22-22,22s-22-9.8-22-22S52.4,42.6,64.5,42.6z"/>
		<path d="M69,19.4V5.1c0-2.5-2-4.5-4.5-4.5S60,2.6,60,5.1v14.2c0,2.5,2,4.5,4.5,4.5C67,23.9,69,21.9,69,19.4z"/>
		<path d="M60,109.8v14.2c0,2.5,2,4.5,4.5,4.5c2.5,0,4.5-2,4.5-4.5v-14.2c0-2.5-2-4.5-4.5-4.5S60,107.3,60,109.8z"/>
		<path d="M99.7,35.8l10-10c1.8-1.8,1.8-4.6,0-6.4c-1.8-1.8-4.6-1.8-6.4,0l-10,10c-1.8,1.8-1.8,4.6,0,6.4c0.9,0.9,2,1.3,3.2,1.3
			S98.8,36.7,99.7,35.8z"/>
		<path d="M19.3,109.8c0.9,0.9,2,1.3,3.2,1.3c1.1,0,2.3-0.4,3.2-1.3l10-10c1.8-1.8,1.8-4.6,0-6.4c-1.8-1.8-4.6-1.8-6.4,0l-10,10
			C17.5,105.2,17.5,108.1,19.3,109.8z"/>
		<path d="M128.5,64.6c0-2.5-2-4.5-4.5-4.5h-14.2c-2.5,0-4.5,2-4.5,4.5c0,2.5,2,4.5,4.5,4.5H124C126.4,69.1,128.5,67.1,128.5,64.6z"
			/>
		<path d="M5,69.1h14.2c2.5,0,4.5-2,4.5-4.5c0-2.5-2-4.5-4.5-4.5H5c-2.5,0-4.5,2-4.5,4.5C0.5,67.1,2.6,69.1,5,69.1z"/>
		<path d="M106.5,111.2c1.1,0,2.3-0.4,3.2-1.3c1.8-1.8,1.8-4.6,0-6.4l-10-10c-1.8-1.8-4.6-1.8-6.4,0c-1.8,1.8-1.8,4.6,0,6.4l10,10
			C104.2,110.7,105.4,111.2,106.5,111.2z"/>
		<path d="M35.7,35.8c1.8-1.8,1.8-4.6,0-6.4l-10-10c-1.8-1.8-4.6-1.8-6.4,0c-1.8,1.8-1.8,4.6,0,6.4l10,10c0.9,0.9,2,1.3,3.2,1.3
			C33.7,37.1,34.8,36.7,35.7,35.8z"/>
	</g>
</g>
</svg>
